<?xml version="1.0" encoding="UTF-8" standalone="no"?><!-- Generator: Gravit.io --><svg xmlns="http://www.w3.org/2000/svg" xmlns:xlink="http://www.w3.org/1999/xlink" style="isolation:isolate" viewBox="0 0 110.421 109.846" width="110.421pt" height="109.846pt"><defs><clipPath id="_clipPath_MnPuosjVEKYZDddHCbiDXrgcXm86N4kX"><rect width="110.421" height="109.846"/></clipPath></defs><g clip-path="url(#_clipPath_MnPuosjVEKYZDddHCbiDXrgcXm86N4kX)"><g><path d=" M 54.813 0 C 26.781 0 28.531 12.156 28.531 12.156 L 28.563 24.75 L 55.313 24.75 L 55.313 28.531 L 17.938 28.531 C 17.938 28.531 0 26.497 0 54.781 C 0 83.066 15.656 82.063 15.656 82.063 L 25 82.063 L 25 68.938 C 25 68.938 24.496 53.281 40.406 53.281 C 56.316 53.281 66.938 53.281 66.938 53.281 C 66.938 53.281 81.844 53.522 81.844 38.875 C 81.844 24.228 81.844 14.656 81.844 14.656 C 81.844 14.656 84.107 0 54.813 0 Z  M 40.063 8.469 C 42.724 8.469 44.875 10.62 44.875 13.281 C 44.875 15.943 42.724 18.094 40.063 18.094 C 37.401 18.094 35.25 15.943 35.25 13.281 C 35.25 10.62 37.401 8.469 40.063 8.469 Z " fill="rgb(56,126,184)"/><path d=" M 55.609 109.846 C 83.64 109.846 81.89 97.69 81.89 97.69 L 81.859 85.096 L 55.109 85.096 L 55.109 81.315 L 92.484 81.315 C 92.484 81.315 110.421 83.349 110.421 55.065 C 110.421 26.781 94.765 27.784 94.765 27.784 L 85.421 27.784 L 85.421 40.909 C 85.421 40.909 85.925 56.565 70.015 56.565 C 54.105 56.565 43.484 56.565 43.484 56.565 C 43.484 56.565 28.577 56.324 28.577 70.971 C 28.577 85.618 28.577 95.19 28.577 95.19 C 28.577 95.19 26.314 109.846 55.609 109.846 Z  M 70.359 101.377 C 67.697 101.377 65.546 99.226 65.546 96.565 C 65.546 93.903 67.697 91.752 70.359 91.752 C 73.02 91.752 75.171 93.903 75.171 96.565 C 75.171 99.226 73.02 101.377 70.359 101.377 Z " fill="rgb(255,224,82)"/></g></g></svg>